name rise30.8019peak61.5557fall86.2505.mot
datacolumns 19
datarows 21
range 16.51661000000000 16.54993800000000
endheader
time	ground_force1_vx	ground_force1_vy	ground_force1_vz	ground_force1_px	ground_force1_py	ground_force1_pz	ground_force2_vx	ground_force2_vy	ground_force2_vz	ground_force2_px	ground_force2_py	ground_force2_pz	ground_torque1_x	ground_torque1_y	ground_torque1_z	ground_torque2_x	ground_torque2_y	ground_torque2_z	
16.51661000000000	-15.17789200000000	690.40074300000003	30.94685300000000	0.11293300000000	0.00000000000000	0.09582600000000	0.00000000000000	0.00000000000000	0.00000000000000	0.00000000000000	0.00000000000000	0.00000000000000	0.00000000000000	11.42791900000000	0.00000000000000	0.00000000000000	0.00000000000000	0.00000000000000	
16.51827700000000	-15.65972000000000	691.09929299999999	30.95919500000000	0.11186600000000	0.00000000000000	0.09583500000000	0.00000000000000	0.00000000000000	0.00000000000000	0.00000000000000	0.00000000000000	0.00000000000000	0.00000000000000	11.48126400000000	0.00000000000000	0.00000000000000	0.00000000000000	0.00000000000000	
16.51994100000000	-16.14159700000000	691.80415100000005	30.97431000000000	0.11080600000000	0.00000000000000	0.09584400000000	0.00000000000000	0.00000000000000	0.00000000000000	0.00000000000000	0.00000000000000	0.00000000000000	0.00000000000000	11.53557300000000	0.00000000000000	0.00000000000000	0.00000000000000	0.00000000000000	
16.52161200000000	-16.62349700000000	692.51620300000002	30.99235700000000	0.10975300000000	0.00000000000000	0.09585400000000	0.00000000000000	0.00000000000000	0.00000000000000	0.00000000000000	0.00000000000000	0.00000000000000	0.00000000000000	11.59088200000000	0.00000000000000	0.00000000000000	0.00000000000000	0.00000000000000	
16.52327000000000	-17.10540800000000	693.23637299999996	31.01349300000000	0.10870800000000	0.00000000000000	0.09586300000000	0.00000000000000	0.00000000000000	0.00000000000000	0.00000000000000	0.00000000000000	0.00000000000000	0.00000000000000	11.64722900000000	0.00000000000000	0.00000000000000	0.00000000000000	0.00000000000000	
16.52493900000000	-17.58732800000000	693.96561799999995	31.03786700000000	0.10767000000000	0.00000000000000	0.09587300000000	0.00000000000000	0.00000000000000	0.00000000000000	0.00000000000000	0.00000000000000	0.00000000000000	0.00000000000000	11.70464700000000	0.00000000000000	0.00000000000000	0.00000000000000	0.00000000000000	
16.52660700000000	-18.06926900000000	694.70492700000000	31.06562200000000	0.10664000000000	0.00000000000000	0.09588400000000	0.00000000000000	0.00000000000000	0.00000000000000	0.00000000000000	0.00000000000000	0.00000000000000	0.00000000000000	11.76316800000000	0.00000000000000	0.00000000000000	0.00000000000000	0.00000000000000	
16.52827400000000	-18.55125300000000	695.45531300000005	31.09689200000000	0.10561800000000	0.00000000000000	0.09589400000000	0.00000000000000	0.00000000000000	0.00000000000000	0.00000000000000	0.00000000000000	0.00000000000000	0.00000000000000	11.82282300000000	0.00000000000000	0.00000000000000	0.00000000000000	0.00000000000000	
16.52994400000000	-19.03331400000000	696.21780999999999	31.13180600000000	0.10460200000000	0.00000000000000	0.09590500000000	0.00000000000000	0.00000000000000	0.00000000000000	0.00000000000000	0.00000000000000	0.00000000000000	0.00000000000000	11.88363900000000	0.00000000000000	0.00000000000000	0.00000000000000	0.00000000000000	
16.53160700000000	-19.51549500000000	696.99347200000000	31.17048200000000	0.10359400000000	0.00000000000000	0.09591600000000	0.00000000000000	0.00000000000000	0.00000000000000	0.00000000000000	0.00000000000000	0.00000000000000	0.00000000000000	11.94564100000000	0.00000000000000	0.00000000000000	0.00000000000000	0.00000000000000	
16.53327700000000	-19.99784900000000	697.78336200000001	31.21303100000000	0.10259300000000	0.00000000000000	0.09592800000000	0.00000000000000	0.00000000000000	0.00000000000000	0.00000000000000	0.00000000000000	0.00000000000000	0.00000000000000	12.00885000000000	0.00000000000000	0.00000000000000	0.00000000000000	0.00000000000000	
16.53493600000000	-20.48043600000000	698.58855500000004	31.25955300000000	0.10159900000000	0.00000000000000	0.09594000000000	0.00000000000000	0.00000000000000	0.00000000000000	0.00000000000000	0.00000000000000	0.00000000000000	0.00000000000000	12.07328500000000	0.00000000000000	0.00000000000000	0.00000000000000	0.00000000000000	
16.53661100000000	-20.96332500000000	699.41012599999999	31.31014000000000	0.10061200000000	0.00000000000000	0.09595200000000	0.00000000000000	0.00000000000000	0.00000000000000	0.00000000000000	0.00000000000000	0.00000000000000	0.00000000000000	12.13896000000000	0.00000000000000	0.00000000000000	0.00000000000000	0.00000000000000	
16.53827200000000	-21.44658900000000	700.24915199999998	31.36487400000000	0.09963200000000	0.00000000000000	0.09596500000000	0.00000000000000	0.00000000000000	0.00000000000000	0.00000000000000	0.00000000000000	0.00000000000000	0.00000000000000	12.20588500000000	0.00000000000000	0.00000000000000	0.00000000000000	0.00000000000000	
16.53994500000000	-21.93030700000000	701.10669800000005	31.42382800000000	0.09865700000000	0.00000000000000	0.09597900000000	0.00000000000000	0.00000000000000	0.00000000000000	0.00000000000000	0.00000000000000	0.00000000000000	0.00000000000000	12.27406700000000	0.00000000000000	0.00000000000000	0.00000000000000	0.00000000000000	
16.54161000000000	-22.41456100000000	701.98382200000003	31.48706300000000	0.09768900000000	0.00000000000000	0.09599300000000	0.00000000000000	0.00000000000000	0.00000000000000	0.00000000000000	0.00000000000000	0.00000000000000	0.00000000000000	12.34350700000000	0.00000000000000	0.00000000000000	0.00000000000000	0.00000000000000	
16.54327400000000	-22.89943700000000	702.88156100000003	31.55463200000000	0.09672600000000	0.00000000000000	0.09600700000000	0.00000000000000	0.00000000000000	0.00000000000000	0.00000000000000	0.00000000000000	0.00000000000000	0.00000000000000	12.41420300000000	0.00000000000000	0.00000000000000	0.00000000000000	0.00000000000000	
16.54493700000000	-23.38501700000000	703.80092999999999	31.62658000000000	0.09576900000000	0.00000000000000	0.09602200000000	0.00000000000000	0.00000000000000	0.00000000000000	0.00000000000000	0.00000000000000	0.00000000000000	0.00000000000000	12.48614600000000	0.00000000000000	0.00000000000000	0.00000000000000	0.00000000000000	
16.54660600000000	-23.87138700000000	704.74291700000003	31.70293900000000	0.09481700000000	0.00000000000000	0.09603800000000	0.00000000000000	0.00000000000000	0.00000000000000	0.00000000000000	0.00000000000000	0.00000000000000	0.00000000000000	12.55932300000000	0.00000000000000	0.00000000000000	0.00000000000000	0.00000000000000	
16.54827000000000	-24.35862800000000	705.70847300000003	31.78373300000000	0.09387100000000	0.00000000000000	0.09605400000000	0.00000000000000	0.00000000000000	0.00000000000000	0.00000000000000	0.00000000000000	0.00000000000000	0.00000000000000	12.63371700000000	0.00000000000000	0.00000000000000	0.00000000000000	0.00000000000000	
16.54993800000000	-24.84681800000000	706.69851100000005	31.86897900000000	0.09292800000000	0.00000000000000	0.09607100000000	0.00000000000000	0.00000000000000	0.00000000000000	0.00000000000000	0.00000000000000	0.00000000000000	0.00000000000000	12.70930300000000	0.00000000000000	0.00000000000000	0.00000000000000	0.00000000000000	
